<?xml version="1.0" standalone="no"?>
<!DOCTYPE svg PUBLIC "-//W3C//DTD SVG 20010904//EN"
 "http://www.w3.org/TR/2001/REC-SVG-20010904/DTD/svg10.dtd">
<svg version="1.0" xmlns="http://www.w3.org/2000/svg"
 width="650.000000pt" height="650.000000pt" viewBox="0 0 650.000000 650.000000"
 preserveAspectRatio="xMidYMid meet">

<g transform="translate(0.000000,650.000000) scale(0.100000,-0.100000)"
fill="#000000" stroke="none">
<path d="M1001 6457 c-33 -26 -64 -61 -80 -92 l-26 -50 0 -3065 0 -3065 27
-46 c15 -25 44 -60 65 -77 21 -18 46 -38 56 -47 15 -13 265 -15 2217 -15 1903
0 2200 2 2200 14 0 8 9 17 19 21 27 8 79 63 104 110 22 40 22 48 28 710 12
1227 10 4074 -2 4115 -11 36 -82 125 -244 307 -44 49 -135 152 -201 229 -200
229 -353 404 -433 495 -42 47 -132 150 -201 229 -69 80 -152 173 -184 207
l-59 63 -1616 0 -1616 -1 -54 -42z m3089 -702 l0 -485 -747 -1 c-973 0 -1227
-6 -1267 -26 -53 -26 -105 -85 -126 -140 -19 -52 -20 -79 -20 -1022 0 -1074
-2 -1035 66 -1111 19 -21 55 -48 79 -59 45 -21 49 -21 1118 -21 l1073 0 54 33
c37 21 64 48 85 81 l30 49 5 876 5 876 453 3 452 2 0 -1314 0 -1314 -202 -4
c-112 -2 -1056 -4 -2098 -3 l-1895 0 -3 2020 c-1 1111 0 2026 3 2033 3 9 307
12 1470 12 l1465 0 0 -485z m188 -1896 l-3 -770 -25 -19 c-24 -19 -55 -20
-1065 -20 -926 0 -1043 2 -1063 16 l-22 15 0 775 0 774 1090 0 1090 0 -2 -771z
m-2146 -1942 c149 -43 269 -130 318 -232 20 -41 25 -66 25 -135 0 -73 -4 -93
-28 -142 -32 -66 -129 -160 -182 -178 -34 -11 -49 -40 -22 -40 34 0 138 -65
186 -115 80 -84 96 -128 96 -260 0 -99 -3 -116 -27 -168 -54 -114 -188 -225
-318 -261 -139 -38 -265 -49 -520 -43 -135 3 -257 9 -273 13 l-27 6 2 777 3
776 110 12 c163 17 584 10 657 -10z m3064 10 c4 -3 9 -169 9 -289 0 -1 -96 -4
-213 -7 l-213 -6 -2 -635 -2 -635 -177 -3 -178 -2 0 640 0 640 -212 2 -213 3
0 145 0 145 555 5 c605 5 638 5 646 -3z m-1548 -129 c22 -73 82 -266 132 -428
50 -162 111 -358 135 -435 24 -77 62 -201 85 -275 23 -74 53 -169 66 -210 13
-41 24 -81 24 -88 0 -18 -379 -18 -384 0 -3 7 -28 94 -56 193 -29 99 -57 186
-62 193 -13 15 -443 18 -453 2 -3 -5 -19 -61 -36 -122 -16 -62 -39 -149 -52
-193 l-23 -80 -187 -2 c-103 -1 -187 0 -187 2 0 3 7 22 15 42 8 21 55 173 106
338 50 165 121 399 158 520 38 121 99 322 137 447 l69 228 236 0 236 0 41
-132z"/>
<path d="M2853 4486 l-73 -11 -25 -52 c-15 -29 -42 -66 -61 -82 -43 -38 -131
-65 -183 -56 l-39 6 -51 -72 c-53 -76 -61 -103 -36 -135 19 -26 19 -122 -1
-169 -8 -21 -34 -56 -56 -77 l-41 -39 7 -76 c7 -90 22 -124 58 -134 85 -22
148 -121 148 -231 0 -37 4 -68 9 -68 4 0 38 -22 74 -50 l67 -49 47 21 c36 16
59 19 103 15 68 -6 109 -25 158 -76 l37 -38 70 9 c110 15 110 15 123 51 16 44
76 113 116 134 17 9 58 19 91 22 52 5 60 9 63 28 2 16 -5 28 -28 42 -47 28
-60 53 -62 123 -3 56 0 67 26 101 22 29 26 41 18 49 -21 21 -13 68 18 113 38
55 66 75 106 75 26 0 40 9 74 50 52 62 50 93 -8 117 -58 24 -88 49 -118 101
-24 40 -28 58 -27 115 l1 68 -75 55 -75 56 -48 -20 c-94 -39 -215 -8 -273 69
-23 32 -25 32 -134 15z m235 -357 c120 -40 211 -154 227 -280 9 -71 -14 -165
-56 -231 -61 -95 -208 -167 -312 -153 -117 16 -224 92 -278 196 -31 62 -38
192 -14 256 68 183 253 273 433 212z"/>
<path d="M3682 3902 c-12 -2 -34 -19 -49 -38 -30 -40 -70 -64 -107 -64 -15 0
-34 -12 -49 -30 -23 -26 -25 -36 -20 -84 5 -49 3 -58 -21 -86 -41 -50 -29
-118 24 -140 31 -13 56 -61 52 -97 -2 -14 7 -32 24 -48 29 -27 48 -30 89 -15
28 11 69 -4 94 -34 8 -10 29 -16 53 -16 35 0 46 6 83 46 31 35 49 46 71 46 40
0 59 12 84 52 16 28 19 39 11 55 -17 31 -13 55 16 97 32 47 36 112 8 129 -55
32 -75 57 -75 95 0 57 -43 85 -128 85 -48 0 -67 4 -76 17 -16 21 -54 35 -84
30z m120 -178 c28 -8 87 -81 94 -118 8 -44 1 -73 -28 -116 -51 -74 -130 -96
-205 -57 -83 44 -110 157 -54 234 45 62 106 80 193 57z"/>
<path d="M1717 1673 c-4 -3 -7 -87 -7 -185 0 -147 3 -180 15 -184 8 -3 66 -1
129 5 82 7 127 16 157 32 23 11 57 21 74 21 18 0 38 4 46 9 10 6 6 9 -13 9
-33 0 -32 -4 -13 50 39 110 -5 202 -114 239 -36 12 -263 16 -274 4z"/>
<path d="M1712 828 l3 -223 125 0 c108 1 132 4 175 23 143 65 187 207 101 325
-45 63 -151 97 -299 97 l-107 0 2 -222z"/>
<path d="M3342 1623 c-6 -21 -22 -92 -37 -158 -15 -66 -47 -189 -71 -274 -24
-84 -44 -158 -44 -162 0 -9 333 -13 342 -4 3 3 -15 72 -39 153 -42 142 -110
399 -120 455 -7 38 -21 34 -31 -10z"/>
</g>
</svg>
