<?xml version="1.0" encoding="UTF-8"?>
<svg xmlns="http://www.w3.org/2000/svg" xmlns:xlink="http://www.w3.org/1999/xlink" width="64px" height="64px" viewBox="0 0 64 63" version="1.1">
<g id="surface1">
<path style=" stroke:none;fill-rule:nonzero;fill:rgb(0%,0%,0%);fill-opacity:1;" d="M 6.496094 31.480469 L 6.496094 62.960938 L 55.328125 62.960938 L 55.308594 39.433594 L 55.277344 15.910156 L 52.527344 13.230469 C 51.023438 11.753906 47.390625 8.175781 44.46875 5.265625 L 39.148438 0 L 6.496094 0 Z M 36.234375 4.226562 C 36.304688 4.328125 36.34375 6.476562 36.367188 11.53125 C 36.375 15.46875 36.40625 18.71875 36.4375 18.738281 C 36.476562 18.757812 39.746094 18.777344 43.707031 18.796875 C 47.675781 18.816406 50.996094 18.867188 51.097656 18.90625 C 51.257812 18.988281 51.269531 20.039062 51.269531 38.804688 C 51.269531 49.699219 51.226562 58.671875 51.175781 58.753906 C 51.105469 58.863281 47.777344 58.882812 31.003906 58.902344 C 19.949219 58.902344 10.832031 58.882812 10.730469 58.84375 C 10.570312 58.773438 10.558594 57.382812 10.558594 31.609375 C 10.558594 16.667969 10.597656 4.398438 10.640625 4.335938 C 10.679688 4.277344 10.78125 4.199219 10.863281 4.167969 C 10.945312 4.136719 16.660156 4.105469 23.5625 4.105469 C 33.886719 4.097656 36.140625 4.117188 36.234375 4.226562 Z M 44.496094 10.921875 C 46.488281 12.871094 48.121094 14.539062 48.121094 14.621094 C 48.121094 14.699219 48.0625 14.789062 47.988281 14.820312 C 47.707031 14.929688 40.8125 14.902344 40.609375 14.789062 C 40.417969 14.691406 40.40625 14.582031 40.40625 11.003906 C 40.40625 8.984375 40.4375 7.296875 40.46875 7.265625 C 40.507812 7.234375 40.609375 7.246094 40.699219 7.296875 C 40.800781 7.34375 42.507812 8.972656 44.496094 10.921875 Z M 44.496094 10.921875 "/>
<path style=" stroke:none;fill-rule:nonzero;fill:rgb(0%,0%,0%);fill-opacity:1;" d="M 20.082031 27.460938 L 17.257812 27.484375 L 17.25 27.914062 C 17.207031 29.363281 17.21875 31.300781 17.257812 31.332031 C 17.410156 31.421875 44.46875 31.421875 44.558594 31.332031 C 44.691406 31.199219 44.800781 27.613281 44.671875 27.53125 C 44.570312 27.472656 24.996094 27.414062 20.082031 27.460938 Z M 20.082031 27.460938 "/>
<path style=" stroke:none;fill-rule:nonzero;fill:rgb(0%,0%,0%);fill-opacity:1;" d="M 17.308594 37.996094 C 17.289062 38.066406 17.25 38.945312 17.238281 39.953125 C 17.207031 41.714844 17.21875 41.785156 17.410156 41.832031 C 17.523438 41.851562 23.695312 41.863281 31.117188 41.851562 L 44.621094 41.824219 L 44.671875 40.675781 C 44.699219 40.042969 44.699219 39.164062 44.671875 38.726562 L 44.621094 37.925781 L 30.984375 37.894531 C 20.132812 37.875 17.351562 37.894531 17.308594 37.996094 Z M 17.308594 37.996094 "/>
<path style=" stroke:none;fill-rule:nonzero;fill:rgb(0%,0%,0%);fill-opacity:1;" d="M 17.269531 48.570312 C 17.238281 48.648438 17.207031 49.527344 17.207031 50.519531 L 17.207031 52.316406 L 30.902344 52.347656 C 41.796875 52.367188 44.621094 52.347656 44.691406 52.246094 C 44.78125 52.097656 44.78125 49.636719 44.691406 48.917969 L 44.621094 48.417969 L 30.976562 48.417969 C 18.945312 48.417969 17.328125 48.4375 17.269531 48.570312 Z M 17.269531 48.570312 "/>
</g>
</svg>
